<svg xmlns="http://www.w3.org/2000/svg" fill="none" viewBox="8.61 1.77 297.71 54.23">
<path d="M280 2.44338C281.547 1.55021 283.453 1.55021 285 2.44338L303.816 13.3066C305.363 14.1998 306.316 15.8504 306.316 17.6368V39.3632C306.316 41.1496 305.363 42.8002 303.816 43.6934L285 54.5566C283.453 55.4498 281.547 55.4498 280 54.5566L261.184 43.6934C259.637 42.8002 258.684 41.1496 258.684 39.3632V17.6368C258.684 15.8504 259.637 14.1998 261.184 13.3066L280 2.44338Z" fill="#3A2A1E"/>
<path d="M289.132 18.16C289.959 19.28 290.372 20.48 290.372 21.76C290.372 22.6667 290.172 23.48 289.772 24.2C289.372 24.92 288.745 25.7333 287.892 26.64C287.145 27.4133 286.599 28.1467 286.252 28.84C285.905 29.5067 285.679 30.1333 285.572 30.72C285.492 31.28 285.399 32.1733 285.292 33.4C285.292 34.0133 285.079 34.4667 284.652 34.76C284.225 35.0267 283.785 35.16 283.332 35.16C282.132 35.16 281.532 34.44 281.532 33C281.532 32.2267 281.665 31.3067 281.932 30.24C282.199 29.1733 282.692 28.0133 283.412 26.76C283.652 26.3333 283.959 25.9067 284.332 25.48C284.732 25.0533 284.985 24.7733 285.092 24.64C285.519 24.1867 285.879 23.72 286.172 23.24C286.465 22.7333 286.612 22.2933 286.612 21.92C286.612 21.4933 286.545 21.16 286.412 20.92C286.305 20.68 286.132 20.4133 285.892 20.12C285.545 19.72 285.092 19.4 284.532 19.16C283.972 18.92 283.452 18.8 282.972 18.8C282.199 18.8 281.479 18.9467 280.812 19.24C280.172 19.5067 279.652 19.8667 279.252 20.32C278.879 20.7467 278.692 21.1867 278.692 21.64C278.692 22.3867 278.839 22.9467 279.132 23.32C279.425 23.6667 279.572 23.9867 279.572 24.28C279.572 24.44 279.532 24.6267 279.452 24.84C279.132 25.5867 278.585 25.96 277.812 25.96C276.825 25.96 276.105 25.5867 275.652 24.84C275.199 24.0933 274.972 23.1467 274.972 22C274.972 20.9067 275.319 19.8667 276.012 18.88C276.705 17.8667 277.719 17.04 279.052 16.4C280.385 15.76 281.972 15.44 283.812 15.44C284.879 15.44 285.879 15.68 286.812 16.16C287.745 16.6133 288.519 17.28 289.132 18.16ZM283.332 36.68C284.132 36.68 284.772 36.96 285.252 37.52C285.652 37.92 285.852 38.4667 285.852 39.16C285.852 39.7467 285.572 40.24 285.012 40.64C284.452 41.0133 283.839 41.2 283.172 41.2C282.692 41.2 282.225 41.0667 281.772 40.8C281.212 40.4 280.932 39.6933 280.932 38.68C280.932 38.1467 281.172 37.68 281.652 37.28C282.159 36.88 282.719 36.68 283.332 36.68Z" fill="white"/>
<path d="M32.6699 7.5C34.5944 4.16666 39.4056 4.16667 41.3301 7.5L64.7128 48C66.6373 51.3333 64.2317 55.5 60.3827 55.5H13.6173C9.76831 55.5 7.36269 51.3333 9.28719 48L32.6699 7.5Z" fill="#FF595E"/>
<path d="M93.7577 3.09115C94.5227 1.73386 96.4773 1.73386 97.2423 3.09115L104.731 16.3781C105.017 16.8844 105.508 17.2416 106.078 17.3565L121.029 20.3732C122.556 20.6813 123.16 22.5402 122.106 23.6872L111.783 34.9156C111.39 35.3435 111.202 35.9214 111.269 36.4988L113.02 51.6501C113.199 53.1979 111.618 54.3467 110.201 53.6983L96.3323 47.3509C95.8038 47.109 95.1962 47.109 94.6677 47.3509L80.799 53.6983C79.3823 54.3467 77.8011 53.1979 77.9799 51.6501L79.731 36.4988C79.7977 35.9214 79.61 35.3435 79.2166 34.9156L68.8942 23.6872C67.8398 22.5402 68.4438 20.6813 69.971 20.3732L84.9219 17.3565C85.4917 17.2416 85.9832 16.8844 86.2686 16.3781L93.7577 3.09115Z" fill="#2C74B3"/>
<path d="M212.67 7.5C214.594 4.16666 219.406 4.16667 221.33 7.5L244.713 48C246.637 51.3333 244.232 55.5 240.383 55.5H193.617C189.768 55.5 187.363 51.3333 189.287 48L212.67 7.5Z" fill="#FF595E"/>
<path d="M130 11C130 8.23858 132.239 6 135 6H175C177.761 6 180 8.23858 180 11V51C180 53.7614 177.761 56 175 56H135C132.239 56 130 53.7614 130 51V11Z" fill="#8AC926"/>
</svg>