<svg xmlns="http://www.w3.org/2000/svg" fill="none" viewBox="3.36 2.07 298.95 55.15">
<path d="M276 4.44338C277.547 3.55021 279.453 3.55021 281 4.44338L299.816 15.3066C301.363 16.1998 302.316 17.8504 302.316 19.6368V41.3632C302.316 43.1496 301.363 44.8002 299.816 45.6934L281 56.5566C279.453 57.4498 277.547 57.4498 276 56.5566L257.184 45.6934C255.637 44.8002 254.684 43.1496 254.684 41.3632V19.6368C254.684 17.8504 255.637 16.1998 257.184 15.3066L276 4.44338Z" fill="#3A2A1E"/>
<path d="M285.132 20.16C285.959 21.28 286.372 22.48 286.372 23.76C286.372 24.6667 286.172 25.48 285.772 26.2C285.372 26.92 284.745 27.7333 283.892 28.64C283.145 29.4133 282.599 30.1467 282.252 30.84C281.905 31.5067 281.679 32.1333 281.572 32.72C281.492 33.28 281.399 34.1733 281.292 35.4C281.292 36.0133 281.079 36.4667 280.652 36.76C280.225 37.0267 279.785 37.16 279.332 37.16C278.132 37.16 277.532 36.44 277.532 35C277.532 34.2267 277.665 33.3067 277.932 32.24C278.199 31.1733 278.692 30.0133 279.412 28.76C279.652 28.3333 279.959 27.9067 280.332 27.48C280.732 27.0533 280.985 26.7733 281.092 26.64C281.519 26.1867 281.879 25.72 282.172 25.24C282.465 24.7333 282.612 24.2933 282.612 23.92C282.612 23.4933 282.545 23.16 282.412 22.92C282.305 22.68 282.132 22.4133 281.892 22.12C281.545 21.72 281.092 21.4 280.532 21.16C279.972 20.92 279.452 20.8 278.972 20.8C278.199 20.8 277.479 20.9467 276.812 21.24C276.172 21.5067 275.652 21.8667 275.252 22.32C274.879 22.7467 274.692 23.1867 274.692 23.64C274.692 24.3867 274.839 24.9467 275.132 25.32C275.425 25.6667 275.572 25.9867 275.572 26.28C275.572 26.44 275.532 26.6267 275.452 26.84C275.132 27.5867 274.585 27.96 273.812 27.96C272.825 27.96 272.105 27.5867 271.652 26.84C271.199 26.0933 270.972 25.1467 270.972 24C270.972 22.9067 271.319 21.8667 272.012 20.88C272.705 19.8667 273.719 19.04 275.052 18.4C276.385 17.76 277.972 17.44 279.812 17.44C280.879 17.44 281.879 17.68 282.812 18.16C283.745 18.6133 284.519 19.28 285.132 20.16ZM279.332 38.68C280.132 38.68 280.772 38.96 281.252 39.52C281.652 39.92 281.852 40.4667 281.852 41.16C281.852 41.7467 281.572 42.24 281.012 42.64C280.452 43.0133 279.839 43.2 279.172 43.2C278.692 43.2 278.225 43.0667 277.772 42.8C277.212 42.4 276.932 41.6933 276.932 40.68C276.932 40.1467 277.172 39.68 277.652 39.28C278.159 38.88 278.719 38.68 279.332 38.68Z" fill="white"/>
<path d="M28.7577 3.09115C29.5227 1.73386 31.4773 1.73386 32.2423 3.09115L39.7314 16.3781C40.0168 16.8844 40.5083 17.2416 41.0781 17.3565L56.029 20.3732C57.5562 20.6813 58.1602 22.5402 57.1058 23.6872L46.7834 34.9156C46.39 35.3435 46.2023 35.9214 46.269 36.4988L48.0201 51.6501C48.1989 53.1979 46.6177 54.3467 45.201 53.6983L31.3323 47.3509C30.8038 47.109 30.1962 47.109 29.6677 47.3509L15.799 53.6983C14.3823 54.3467 12.8011 53.1979 12.9799 51.6501L14.731 36.4988C14.7977 35.9214 14.61 35.3435 14.2166 34.9156L3.89423 23.6872C2.83978 22.5402 3.44377 20.6813 4.97104 20.3732L19.9219 17.3565C20.4917 17.2416 20.9832 16.8844 21.2686 16.3781L28.7577 3.09115Z" fill="#2C74B3"/>
<path d="M91.7577 3.09115C92.5227 1.73386 94.4773 1.73386 95.2423 3.09115L102.731 16.3781C103.017 16.8844 103.508 17.2416 104.078 17.3565L119.029 20.3732C120.556 20.6813 121.16 22.5402 120.106 23.6872L109.783 34.9156C109.39 35.3435 109.202 35.9214 109.269 36.4988L111.02 51.6501C111.199 53.1979 109.618 54.3467 108.201 53.6983L94.3323 47.3509C93.8038 47.109 93.1962 47.109 92.6677 47.3509L78.799 53.6983C77.3823 54.3467 75.8011 53.1979 75.9799 51.6501L77.731 36.4988C77.7977 35.9214 77.61 35.3435 77.2166 34.9156L66.8942 23.6872C65.8398 22.5402 66.4438 20.6813 67.971 20.3732L82.9219 17.3565C83.4917 17.2416 83.9832 16.8844 84.2686 16.3781L91.7577 3.09115Z" fill="#2C74B3"/>
<circle cx="155" cy="31" r="25" fill="#5BC0EB"/>
<circle cx="217" cy="31" r="25" fill="#5BC0EB"/>
</svg>