<svg xmlns="http://www.w3.org/2000/svg" fill="none" viewBox="0 0.77 294.32 53.45">
<rect x="60" y="2" width="50" height="50" rx="5" fill="#8AC926"/>
<path d="M180 7C180 4.23858 182.239 2 185 2H225C227.761 2 230 4.23858 230 7V47C230 49.7614 227.761 52 225 52H185C182.239 52 180 49.7614 180 47V7Z" fill="#8AC926"/>
<circle cx="25" cy="27" r="25" fill="#5BC0EB"/>
<circle cx="145" cy="27" r="25" fill="#5BC0EB"/>
<path d="M268 1.44338C269.547 0.550212 271.453 0.550212 273 1.44338L291.816 12.3066C293.363 13.1998 294.316 14.8504 294.316 16.6368V38.3632C294.316 40.1496 293.363 41.8002 291.816 42.6934L273 53.5566C271.453 54.4498 269.547 54.4498 268 53.5566L249.184 42.6934C247.637 41.8002 246.684 40.1496 246.684 38.3632V16.6368C246.684 14.8504 247.637 13.1998 249.184 12.3066L268 1.44338Z" fill="#3A2A1E"/>
<path d="M277.132 17.16C277.959 18.28 278.372 19.48 278.372 20.76C278.372 21.6667 278.172 22.48 277.772 23.2C277.372 23.92 276.745 24.7333 275.892 25.64C275.145 26.4133 274.599 27.1467 274.252 27.84C273.905 28.5067 273.679 29.1333 273.572 29.72C273.492 30.28 273.399 31.1733 273.292 32.4C273.292 33.0133 273.079 33.4667 272.652 33.76C272.225 34.0267 271.785 34.16 271.332 34.16C270.132 34.16 269.532 33.44 269.532 32C269.532 31.2267 269.665 30.3067 269.932 29.24C270.199 28.1733 270.692 27.0133 271.412 25.76C271.652 25.3333 271.959 24.9067 272.332 24.48C272.732 24.0533 272.985 23.7733 273.092 23.64C273.519 23.1867 273.879 22.72 274.172 22.24C274.465 21.7333 274.612 21.2933 274.612 20.92C274.612 20.4933 274.545 20.16 274.412 19.92C274.305 19.68 274.132 19.4133 273.892 19.12C273.545 18.72 273.092 18.4 272.532 18.16C271.972 17.92 271.452 17.8 270.972 17.8C270.199 17.8 269.479 17.9467 268.812 18.24C268.172 18.5067 267.652 18.8667 267.252 19.32C266.879 19.7467 266.692 20.1867 266.692 20.64C266.692 21.3867 266.839 21.9467 267.132 22.32C267.425 22.6667 267.572 22.9867 267.572 23.28C267.572 23.44 267.532 23.6267 267.452 23.84C267.132 24.5867 266.585 24.96 265.812 24.96C264.825 24.96 264.105 24.5867 263.652 23.84C263.199 23.0933 262.972 22.1467 262.972 21C262.972 19.9067 263.319 18.8667 264.012 17.88C264.705 16.8667 265.719 16.04 267.052 15.4C268.385 14.76 269.972 14.44 271.812 14.44C272.879 14.44 273.879 14.68 274.812 15.16C275.745 15.6133 276.519 16.28 277.132 17.16ZM271.332 35.68C272.132 35.68 272.772 35.96 273.252 36.52C273.652 36.92 273.852 37.4667 273.852 38.16C273.852 38.7467 273.572 39.24 273.012 39.64C272.452 40.0133 271.839 40.2 271.172 40.2C270.692 40.2 270.225 40.0667 269.772 39.8C269.212 39.4 268.932 38.6933 268.932 37.68C268.932 37.1467 269.172 36.68 269.652 36.28C270.159 35.88 270.719 35.68 271.332 35.68Z" fill="white"/>
</svg>