<svg xmlns="http://www.w3.org/2000/svg" fill="none" viewBox="0 0 74.24 70.8">
<path d="M35.379 1.01797C36.1441 -0.33932 38.0986 -0.339321 38.8636 1.01797L49.6854 20.2178C49.9708 20.7241 50.4624 21.0813 51.0322 21.1962L72.6364 25.5553C74.1637 25.8635 74.7676 27.7224 73.7132 28.8694L58.7972 45.0946C58.4038 45.5225 58.2161 46.1004 58.2828 46.6778L60.8132 68.5716C60.992 70.1194 59.4108 71.2682 57.9941 70.6198L37.9537 61.4478C37.4251 61.2059 36.8175 61.2059 36.289 61.4478L16.2486 70.6198C14.8319 71.2682 13.2506 70.1194 13.4295 68.5716L15.9599 46.6778C16.0266 46.1004 15.8388 45.5225 15.4455 45.0946L0.52948 28.8694C-0.524974 27.7224 0.0790148 25.8635 1.60628 25.5553L23.2105 21.1962C23.7803 21.0813 24.2718 20.7241 24.5572 20.2178L35.379 1.01797Z" fill="#2C74B3"/>
</svg>