<svg xmlns="http://www.w3.org/2000/svg" fill="none" viewBox="52.61 52.61 46.78 46.78">
<path d="M72.3838 56.4707C72.7106 51.9884 79.2894 51.9884 79.6162 56.4707C79.8931 60.264 84.375 62.1205 87.2529 59.6338C90.6534 56.6954 95.3046 61.3465 92.3662 64.7471C89.8795 67.625 91.736 72.1069 95.5293 72.3838C100.012 72.7106 100.012 79.2894 95.5293 79.6162C91.736 79.8931 89.8795 84.375 92.3662 87.2529C95.3046 90.6535 90.6534 95.3046 87.2529 92.3662C84.375 89.8795 79.8931 91.736 79.6162 95.5293C79.2894 100.012 72.7106 100.012 72.3838 95.5293C72.1069 91.736 67.625 89.8795 64.7471 92.3662C61.3465 95.3046 56.6954 90.6535 59.6338 87.2529C62.1205 84.375 60.264 79.8931 56.4707 79.6162C51.9884 79.2894 51.9884 72.7106 56.4707 72.3838C60.264 72.1069 62.1205 67.625 59.6338 64.7471C56.6954 61.3465 61.3465 56.6954 64.7471 59.6338C67.625 62.1205 72.1069 60.264 72.3838 56.4707Z" fill="#7A6C5D" stroke="black"/>
<circle cx="76.0001" cy="76" r="9.21429" fill="#7A6C5D" stroke="black"/>
</svg>