<svg xmlns="http://www.w3.org/2000/svg" fill="none" viewBox="-1 -1 54 47.63">
<mask id="path-1-inside-1_17_99" fill="white">
<path d="M24.873 0.348419C25.5462 -0.116107 26.4548 -0.11615 27.1279 0.348419L51.1973 16.9617C52.7131 18.0079 51.9396 20.2975 50.0703 20.2976H47.1924V43.7898C47.1923 44.8073 46.3295 45.6325 45.2656 45.6326H33.7061C32.6422 45.6325 31.7803 44.8073 31.7803 43.7898V33.656C31.7803 32.6385 30.9174 31.8134 29.8535 31.8133H22.1475C21.0835 31.8133 20.2207 32.6385 20.2207 33.656V43.7898C20.2206 44.8074 19.3579 45.6326 18.2939 45.6326H6.73535C5.6714 45.6326 4.80865 44.8074 4.80859 43.7898V20.2976H1.92969C0.0606654 20.2973 -0.712861 18.0079 0.802734 16.9617L24.873 0.348419Z"/>
</mask>
<path d="M24.873 0.348419C25.5462 -0.116107 26.4548 -0.11615 27.1279 0.348419L51.1973 16.9617C52.7131 18.0079 51.9396 20.2975 50.0703 20.2976H47.1924V43.7898C47.1923 44.8073 46.3295 45.6325 45.2656 45.6326H33.7061C32.6422 45.6325 31.7803 44.8073 31.7803 43.7898V33.656C31.7803 32.6385 30.9174 31.8134 29.8535 31.8133H22.1475C21.0835 31.8133 20.2207 32.6385 20.2207 33.656V43.7898C20.2206 44.8074 19.3579 45.6326 18.2939 45.6326H6.73535C5.6714 45.6326 4.80865 44.8074 4.80859 43.7898V20.2976H1.92969C0.0606654 20.2973 -0.712861 18.0079 0.802734 16.9617L24.873 0.348419Z" fill="#C9863F"/>
<path d="M24.873 0.348419L24.3051 -0.474613L24.305 -0.474585L24.873 0.348419ZM27.1279 0.348419L27.696 -0.474574L27.696 -0.47458L27.1279 0.348419ZM51.1973 16.9617L50.6292 17.7847L50.6292 17.7847L51.1973 16.9617ZM50.0703 20.2976V21.2976H50.0704L50.0703 20.2976ZM47.1924 20.2976V19.2976H46.1924V20.2976H47.1924ZM47.1924 43.7898L48.1924 43.7899V43.7898H47.1924ZM45.2656 45.6326V46.6326H45.2657L45.2656 45.6326ZM33.7061 45.6326L33.7059 46.6326H33.7061V45.6326ZM31.7803 43.7898H30.7803V43.7899L31.7803 43.7898ZM29.8535 31.8133L29.8536 30.8133H29.8535V31.8133ZM20.2207 43.7898L21.2207 43.7899V43.7898H20.2207ZM4.80859 43.7898H3.80859V43.7899L4.80859 43.7898ZM4.80859 20.2976H5.80859V19.2976H4.80859V20.2976ZM1.92969 20.2976L1.92949 21.2976H1.92969V20.2976ZM0.802734 16.9617L0.234699 16.1387L0.234643 16.1387L0.802734 16.9617ZM24.873 0.348419L25.441 1.17145C25.7723 0.942855 26.2288 0.942877 26.5599 1.17142L27.1279 0.348419L27.696 -0.47458C26.6809 -1.17518 25.32 -1.17507 24.3051 -0.474613L24.873 0.348419ZM27.1279 0.348419L26.5599 1.17141L50.6292 17.7847L51.1973 16.9617L51.7653 16.1387L27.696 -0.474574L27.1279 0.348419ZM51.1973 16.9617L50.6292 17.7847C50.9904 18.034 51.0622 18.387 50.9558 18.7019C50.8474 19.0227 50.5511 19.2976 50.0702 19.2976L50.0703 20.2976L50.0704 21.2976C51.4587 21.2975 52.4839 20.4275 52.8506 19.342C53.2193 18.2505 52.92 16.9357 51.7653 16.1387L51.1973 16.9617ZM50.0703 20.2976V19.2976H47.1924V20.2976V21.2976H50.0703V20.2976ZM47.1924 20.2976H46.1924V43.7898H47.1924H48.1924V20.2976H47.1924ZM47.1924 43.7898L46.1924 43.7898C46.1924 44.2134 45.8197 44.6325 45.2655 44.6326L45.2656 45.6326L45.2657 46.6326C46.8393 46.6325 48.1923 45.4011 48.1924 43.7899L47.1924 43.7898ZM45.2656 45.6326V44.6326H33.7061V45.6326V46.6326H45.2656V45.6326ZM33.7061 45.6326L33.7062 44.6326C33.1527 44.6325 32.7803 44.214 32.7803 43.7898L31.7803 43.7898L30.7803 43.7899C30.7804 45.4005 32.1318 46.6324 33.7059 46.6326L33.7061 45.6326ZM31.7803 43.7898H32.7803V33.656H31.7803H30.7803V43.7898H31.7803ZM31.7803 33.656H32.7803C32.7803 32.0446 31.4271 30.8135 29.8536 30.8133L29.8535 31.8133L29.8534 32.8133C30.4077 32.8133 30.7803 33.2325 30.7803 33.656H31.7803ZM29.8535 31.8133V30.8133H22.1475V31.8133V32.8133H29.8535V31.8133ZM22.1475 31.8133V30.8133C20.5736 30.8133 19.2207 32.0447 19.2207 33.656H20.2207H21.2207C21.2207 33.2323 21.5933 32.8133 22.1475 32.8133V31.8133ZM20.2207 33.656H19.2207V43.7898H20.2207H21.2207V33.656H20.2207ZM20.2207 43.7898L19.2207 43.7898C19.2207 44.2136 18.848 44.6326 18.2939 44.6326V45.6326V46.6326C19.8678 46.6326 21.2206 45.4011 21.2207 43.7899L20.2207 43.7898ZM18.2939 45.6326V44.6326H6.73535V45.6326V46.6326H18.2939V45.6326ZM6.73535 45.6326V44.6326C6.18129 44.6326 5.80862 44.2136 5.80859 43.7898L4.80859 43.7898L3.80859 43.7899C3.80869 45.4011 5.16151 46.6326 6.73535 46.6326V45.6326ZM4.80859 43.7898H5.80859V20.2976H4.80859H3.80859V43.7898H4.80859ZM4.80859 20.2976V19.2976H1.92969V20.2976V21.2976H4.80859V20.2976ZM1.92969 20.2976L1.92988 19.2976C1.44906 19.2975 1.15278 19.0227 1.04437 18.7018C0.937969 18.3868 1.00977 18.0339 1.37083 17.7847L0.802734 16.9617L0.234643 16.1387C-0.919899 16.9357 -1.21913 18.2506 -0.850414 19.3419C-0.483701 20.4274 0.541293 21.2974 1.92949 21.2976L1.92969 20.2976ZM0.802734 16.9617L1.37077 17.7847L25.4411 1.17142L24.873 0.348419L24.305 -0.474585L0.234699 16.1387L0.802734 16.9617Z" fill="black" mask="url(#path-1-inside-1_17_99)"/>
</svg>