<svg xmlns="http://www.w3.org/2000/svg" fill="none" viewBox="0 0 60.5 40.94">
<path d="M30.2502 26.9987H30.2889L39.6027 26.9986L44.2789 34.7923C48.9551 44.1448 61.4251 41.0273 59.8664 31.6748L56.7489 14.5286C54.169 4.84835 48.9551 0.5 41.1615 0.5H19.3388C11.5452 0.5 6.3313 4.84835 3.75139 14.5286L0.633902 31.6748C-0.924841 41.0273 11.5452 44.1448 16.2214 34.7923L20.9364 26.9986L30.2502 26.9987Z" fill="#6BCB77"/>
<path d="M30.2889 26.9987L20.9364 26.9986M30.2889 26.9987H30.2502M30.2889 26.9987L39.6027 26.9986M20.9364 26.9986L16.2214 34.7923C11.5452 44.1448 -0.924841 41.0273 0.633902 31.6748L3.75139 14.5286C6.3313 4.84835 11.5452 0.5 19.3388 0.5H41.1615C48.9551 0.5 54.169 4.84835 56.7489 14.5286L59.8664 31.6748C61.4251 41.0273 48.9551 44.1448 44.2789 34.7923L39.6027 26.9986M20.9364 26.9986L30.2502 26.9987M30.2502 26.9987L39.6027 26.9986" stroke="black"/>
<circle cx="37.4262" cy="12.6208" r="1.78433" fill="black"/>
<circle cx="44.5635" cy="12.6208" r="1.78433" fill="black"/>
<circle cx="40.9949" cy="16.1894" r="1.78433" fill="black"/>
<circle cx="40.9949" cy="9.05209" r="1.78433" fill="black"/>
<path d="M19.2795 8.45734V16.1894" stroke="black" stroke-width="3" stroke-linecap="round"/>
<path d="M15.4194 12.3293L23.1515 12.3293" stroke="black" stroke-width="3" stroke-linecap="round"/>
</svg>