<svg xmlns="http://www.w3.org/2000/svg" fill="none" viewBox="0 0 47.48 45.35">
<path d="M22.3861 1.354C22.9295 0.215471 24.5498 0.215472 25.0931 1.354L30.7416 13.1899C31.106 13.9537 31.8322 14.4817 32.6713 14.5923L45.6732 16.3062C46.9239 16.4712 47.4241 18.0128 46.5092 18.8813L36.9984 27.9097C36.3847 28.4923 36.1071 29.3461 36.2611 30.1782L38.6488 43.0737C38.8785 44.3143 37.5672 45.2673 36.4584 44.6655L24.932 38.4097C24.1882 38.006 23.291 38.006 22.5472 38.4097L11.0209 44.6655C9.91201 45.2673 8.60074 44.3143 8.83044 43.0737L11.2181 30.1782C11.3722 29.3461 11.0946 28.4923 10.4808 27.9097L0.970093 18.8813C0.0551149 18.0128 0.555382 16.4712 1.80603 16.3062L14.808 14.5923C15.647 14.4817 16.3732 13.9537 16.7377 13.1899L22.3861 1.354Z" fill="#FFD166" stroke="black"/>
</svg>