<svg width="40" height="40" viewBox="0 0 40 40" fill="none" xmlns="http://www.w3.org/2000/svg">
<g clip-path="url(#clip0_56_521)">
<path d="M38.23 19.9292L36.5624 18.5522L37.1874 15.8435L37.4999 14.3737L35.1049 11.0814L35.6249 9.32121L34.9999 6.31466L32.6049 3.96485H29.4799C29.4799 3.96485 27.71 4.92674 28.2299 3.96485C28.7512 3.0017 25.6262 1.10721 25.6262 1.10721H24.2725L21.0956 2.31684L20.3454 2.92842L17.9187 1.07666H15.5224L13.6474 1.10721L12.0123 2.9285L11.751 3.96493H10.0023L8.12743 4.79729L5.21057 5.72629L4.68994 8.01994L4.27305 11.3463L2.7106 13.1347V15.2063L3.67913 18.1457L2.7106 19.4385L1.25244 21.2097V24.4384L2.7106 26.781V29.6459L4.58556 34.0209C4.58556 34.0209 7.39804 35.4797 7.81493 35.6871C8.23119 35.8958 8.96058 35.6871 8.96058 35.6871L11.2518 38.1871L13.4393 38.9159H15.1062L18.4393 37.4584L20.3454 35.9996L21.1785 37.8746L24.4799 38.9159H26.1474L28.6473 38.3959L30.3442 35.3747L31.2511 35.6871L34.2723 35.0622L36.4598 32.8491L37.2924 29.2297V26.781L38.6766 25.2062L39.4798 22.4584L38.23 19.9292Z" fill="#FF93D0"/>
<path d="M39.9987 22.9699C39.9987 21.0522 38.9916 19.3689 37.4768 18.4216C38.1006 17.5463 38.4668 16.4758 38.4668 15.3199C38.4668 13.5852 37.6416 12.0434 36.3622 11.0656C36.5673 10.4676 36.6808 9.8267 36.6808 9.15778C36.6808 5.93263 34.0648 3.31788 30.8398 3.31788C30.1879 3.31788 29.5604 3.42531 28.9745 3.62305C28.3764 1.53081 26.4501 0 24.1662 0C22.4266 0 20.896 0.887441 19.9999 2.23505C19.1039 0.887441 17.5726 0 15.8337 0C13.5498 0 11.6235 1.53081 11.026 3.62305C10.44 3.42531 9.8126 3.31788 9.15954 3.31788C5.93385 3.31788 3.31903 5.93263 3.31903 9.15778C3.31903 9.8267 3.43192 10.4676 3.63825 11.0656C2.35838 12.0435 1.53258 13.5852 1.53258 15.3199C1.53258 16.4758 1.89939 17.5463 2.5226 18.4216C1.00827 19.3689 0.0012207 21.0522 0.0012207 22.9699C0.0012207 24.6362 0.761159 26.1242 1.95314 27.1069C1.76759 27.7612 1.66751 28.4508 1.66751 29.165C1.66751 33.269 4.96398 36.6015 9.05337 36.6625C10.1007 38.6474 12.1838 40 14.5837 40C16.8988 40 18.9202 38.7402 19.9999 36.8701C21.0796 38.7403 23.1005 40 25.4162 40C27.8161 40 29.8998 38.6475 30.9472 36.6625C35.0365 36.6015 38.3324 33.269 38.3324 29.165C38.3324 28.4508 38.2324 27.7612 38.0468 27.1069C39.2382 26.1242 39.9987 24.6362 39.9987 22.9699ZM14.5837 38.3324C12.0562 38.3324 10.0006 36.2767 10.0006 33.7499C10.0006 32.4682 10.5627 31.2743 11.4129 30.4417C11.5698 30.2903 11.6669 30.0792 11.6669 29.8436C11.6669 29.3834 11.294 29.0112 10.8337 29.0112C10.6067 29.0112 10.4003 29.1015 10.2502 29.2492C9.03384 30.3893 8.33374 31.9506 8.33374 33.7499C8.33374 34.1613 8.37406 34.5641 8.45031 34.9535C7.16364 34.7972 5.97354 34.2198 5.04274 33.2885C3.94099 32.1873 3.33434 30.7225 3.33434 29.1649C3.33434 27.6061 3.94107 26.1413 5.04274 25.0401C6.14448 23.9379 7.60927 23.3311 9.16751 23.3311C9.66369 23.3311 10.1507 23.3921 10.6195 23.5118C10.6885 23.53 10.7599 23.5411 10.8337 23.5411C11.294 23.5411 11.6669 23.1676 11.6669 22.7074C11.6669 22.3009 11.3757 21.9627 10.9906 21.8895C10.4064 21.743 9.79612 21.6648 9.16751 21.6648C6.37019 21.6648 3.93068 23.1968 2.64167 25.4661C2.03744 24.8081 1.66751 23.9316 1.66751 22.9698C1.66751 21.688 2.31752 20.5162 3.407 19.8338L4.17178 19.3553C4.39819 19.2064 4.54772 18.9499 4.54772 18.6582C4.54772 18.4812 4.49155 18.3152 4.39632 18.1809L3.87998 17.4546C3.43504 16.8297 3.19941 16.0911 3.19941 15.3197C3.19941 14.232 3.67364 13.253 4.42561 12.5779C5.48642 14.0441 7.21122 14.9986 9.15954 14.9986C9.61971 14.9986 10.0006 14.6251 10.0006 14.1648C10.0006 13.7046 9.62213 13.3323 9.16204 13.3323C6.86098 13.3323 4.98602 11.4597 4.98602 9.15754C4.98602 6.85648 6.85856 4.98386 9.15962 4.98386C9.75955 4.98386 10.3296 5.11206 10.846 5.34027C11.0211 7.94283 13.1873 9.9985 15.8337 9.9985C16.294 9.9985 16.6669 9.62615 16.6669 9.16481C16.6669 8.70456 16.294 8.33221 15.8337 8.33221C13.9961 8.33221 12.5006 6.83687 12.5006 4.99847C12.5006 3.16132 13.9954 1.66597 15.8337 1.66597C17.6715 1.66597 19.1669 3.1614 19.1669 4.99847V13.3322H19.1656C19.1534 13.7802 18.7854 14.1416 18.3332 14.1416C17.8729 14.1416 17.5 14.5151 17.5 14.9753C17.5 15.4356 17.8729 15.809 18.3332 15.809C18.6254 15.809 18.9062 15.7578 19.1669 15.6662V22.4985C19.1669 23.8766 18.0451 24.9972 16.6669 24.9972C16.2066 24.9972 15.8337 25.3707 15.8337 25.8309C15.8337 26.2912 16.2066 26.6647 16.6669 26.6647C17.605 26.6647 18.4705 26.3546 19.1669 25.8309V33.7496C19.1668 36.2767 17.1106 38.3324 14.5837 38.3324ZM37.3584 25.4663C36.0693 23.1969 33.6303 21.665 30.8325 21.665C30.2038 21.665 29.5935 21.7431 29.0087 21.8896C28.6242 21.9629 28.3325 22.301 28.3325 22.7075C28.3325 23.1678 28.706 23.5412 29.1662 23.5412C29.2407 23.5412 29.3115 23.5302 29.3798 23.5119C29.8486 23.3923 30.3369 23.3313 30.8325 23.3313C32.3902 23.3313 33.855 23.938 34.9572 25.0403C36.0595 26.1414 36.665 27.6063 36.665 29.1651C36.665 30.7227 36.0595 32.1876 34.9572 33.2886C34.0258 34.22 32.8368 34.7974 31.5503 34.9536C31.626 34.5643 31.6663 34.1614 31.6663 33.7501C31.6663 31.9508 30.9668 30.3894 29.7498 29.2494C29.5996 29.1016 29.3933 29.0113 29.1662 29.0113C28.706 29.0113 28.3325 29.3836 28.3325 29.8438C28.3325 30.0794 28.4301 30.2906 28.5864 30.4419C29.4372 31.2744 30 32.4684 30 33.7501C30 36.2769 27.9443 38.3325 25.4163 38.3325C22.8894 38.3325 20.8332 36.2769 20.8332 33.7501V25.8313C21.5296 26.3549 22.395 26.665 23.3325 26.665C23.7939 26.665 24.1663 26.2915 24.1663 25.8313C24.1663 25.371 23.7939 24.9975 23.3325 24.9975C21.9555 24.9975 20.8332 23.8768 20.8332 22.4988V15.6665C21.0938 15.7581 21.3746 15.8093 21.6662 15.8093C22.1265 15.8093 22.5 15.4359 22.5 14.9756C22.5 14.5154 22.1265 14.1419 21.6662 14.1419C21.2146 14.1419 20.8466 13.7805 20.8344 13.3326H20.8332V4.9987C20.8332 3.16155 22.329 1.66621 24.1663 1.66621C26.0035 1.66621 27.5 3.16163 27.5 4.9987C27.5 6.8371 26.0035 8.33245 24.1663 8.33245C23.706 8.33245 23.3325 8.70487 23.3325 9.16504C23.3325 9.62638 23.706 9.99873 24.1663 9.99873C26.8127 9.99873 28.9794 7.94306 29.154 5.34051C29.6704 5.11222 30.2405 4.98409 30.8399 4.98409C33.1421 4.98409 35.0146 6.85671 35.0146 9.15778C35.0146 11.4599 33.1397 13.3326 30.8374 13.3326C30.3772 13.3326 30 13.7049 30 14.1651C30 14.6252 30.3809 14.9988 30.8399 14.9988C32.7881 14.9988 34.5141 14.0442 35.5737 12.5782C36.3257 13.2533 36.8005 14.2323 36.8005 15.3199C36.8005 16.0914 36.5649 16.8299 36.1193 17.4548L35.603 18.1812C35.5078 18.3155 35.4516 18.4815 35.4516 18.6584C35.4516 18.9502 35.6018 19.2066 35.8275 19.3555L36.5929 19.834C37.6819 20.5164 38.3325 21.6882 38.3325 22.97C38.3324 23.9318 37.9626 24.8083 37.3584 25.4663Z" fill="#ED5DB3"/>
</g>
<defs>
<clipPath id="clip0_56_521">
<rect width="40" height="40" fill="white"/>
</clipPath>
</defs>
</svg>
