<svg width="50" height="50" viewBox="0 0 50 50" fill="none" xmlns="http://www.w3.org/2000/svg">
<path d="M28.8094 45.8319C28.8094 47.9514 27.0916 49.6693 24.972 49.6693C22.8524 49.6693 21.1346 47.9514 21.1346 45.8319C23.6932 45.3796 26.2513 45.3796 28.8094 45.8319Z" fill="#BFBFBF"/>
<path d="M18.3306 35.375C18.3877 35.7351 18.4217 36.1 18.4217 36.4677V38.3738V44.3961C18.4217 45.1892 19.065 45.8324 19.858 45.8324H30.0854C30.8785 45.8324 31.5217 45.1892 31.5217 44.3961V38.381V36.3437C31.5217 36.0177 31.5524 35.6944 31.6002 35.375C27.1799 34.0814 22.7569 34.0831 18.3306 35.375Z" fill="#777777"/>
<path d="M31.368 42.6146H18.5765C17.4102 42.6146 16.4558 41.6602 16.4558 40.4939C16.4558 39.3277 17.4102 38.3733 18.5765 38.3733H31.368C32.5343 38.3733 33.4887 39.3277 33.4887 40.4939C33.4887 41.6607 32.5343 42.6146 31.368 42.6146Z" fill="#BFBFBF"/>
<path d="M18.3306 35.375H31.6002C31.7923 34.0814 32.3619 32.863 33.2889 31.924C35.3684 29.8154 36.6516 26.9198 36.6516 23.7245C36.6516 16.8362 30.688 11.3402 23.6422 12.1184C18.1221 12.7282 13.7451 17.2796 13.3269 22.8178C13.0602 26.3523 14.3681 29.5854 16.6221 31.89C17.5524 32.8416 18.1248 34.0705 18.3306 35.375Z" fill="#FFD310"/>
<path d="M22.1933 30.8785C22.0555 30.8785 21.9161 30.8516 21.7811 30.7956C20.324 30.1897 19.0781 29.1903 18.178 27.9055C17.2862 26.6311 16.7736 25.1311 16.6968 23.5686C16.6677 22.9753 17.1243 22.471 17.7176 22.4419C18.3103 22.4133 18.8147 22.8694 18.8443 23.4627C18.9014 24.6207 19.2801 25.7305 19.9392 26.6722C20.605 27.6228 21.527 28.3621 22.606 28.8105C23.1543 29.0382 23.4139 29.6678 23.1861 30.2155C23.0149 30.6293 22.6148 30.8785 22.1933 30.8785Z" fill="#FFE988"/>
<path d="M32.1583 23.9001C31.587 23.9001 31.1112 23.4501 31.0854 22.8733C31.0327 21.7059 30.654 20.5863 29.9883 19.6357C29.3291 18.694 28.4159 17.9585 27.3468 17.509C26.799 17.2791 26.5427 16.6485 26.7727 16.1013C27.0038 15.5541 27.6349 15.2962 28.1804 15.5278C29.6233 16.1348 30.8576 17.1287 31.7495 18.4031C32.649 19.6884 33.1622 21.201 33.233 22.7772C33.2598 23.3705 32.8005 23.8727 32.2072 23.8996C32.1913 23.8996 32.1748 23.9001 32.1583 23.9001Z" fill="#FFE988"/>
<path d="M47.1381 24.5906H40.9682C40.3743 24.5906 39.893 24.1092 39.893 23.5154C39.893 22.9216 40.3743 22.4402 40.9682 22.4402H47.1375C47.7314 22.4402 48.2127 22.9216 48.2127 23.5154C48.2127 24.1092 47.7314 24.5906 47.1381 24.5906Z" fill="#FFD310"/>
<path d="M8.9764 24.5906H2.80593C2.2121 24.5906 1.73077 24.1092 1.73077 23.5154C1.73077 22.9216 2.2121 22.4402 2.80593 22.4402H8.97585C9.56969 22.4402 10.051 22.9216 10.051 23.5154C10.051 24.1092 9.56968 24.5906 8.9764 24.5906Z" fill="#FFD310"/>
<path d="M24.972 8.59441C24.3782 8.59441 23.8969 8.11308 23.8969 7.51925V1.34987C23.8974 0.756042 24.3787 0.274719 24.972 0.274719C25.5658 0.274719 26.0472 0.756042 26.0472 1.34987V7.5198C26.0472 8.11308 25.5658 8.59441 24.972 8.59441Z" fill="#FFD310"/>
<path d="M36.2828 13.2797C36.0078 13.2797 35.7329 13.1749 35.5227 12.9647C35.1028 12.5449 35.1028 11.8643 35.5227 11.4445L39.8858 7.08128C40.3057 6.66142 40.9862 6.66142 41.4061 7.08128C41.8259 7.50113 41.8259 8.18168 41.4061 8.60153L37.0429 12.9647C36.8333 13.1749 36.5583 13.2797 36.2828 13.2797Z" fill="#FFD310"/>
<path d="M13.6612 13.2797C13.3863 13.2797 13.1107 13.1749 12.9011 12.9647L8.53846 8.60153C8.11861 8.18168 8.11861 7.50113 8.53846 7.08128C8.95777 6.66142 9.63941 6.66142 10.0587 7.08128L14.4213 11.4445C14.8412 11.8643 14.8412 12.5449 14.4213 12.9647C14.2111 13.1749 13.9362 13.2797 13.6612 13.2797Z" fill="#FFD310"/>
</svg>
