<svg width="23" height="21" viewBox="0 0 23 21" fill="none" xmlns="http://www.w3.org/2000/svg">
<path d="M2.39909e-05 11.04C2.39909e-05 10.144 0.320024 9.43999 0.960024 8.92799C1.63202 8.41599 2.59202 7.91999 3.84002 7.43999L13.008 3.11999C14.768 2.31999 15.632 1.91999 15.6 1.91999L17.136 1.15199C17.84 0.767994 18.432 0.479994 18.912 0.287995C19.424 0.0959945 19.968 -5.72205e-06 20.544 -5.72205e-06C21.152 -5.72205e-06 21.616 0.223994 21.936 0.671994C22.256 1.11999 22.416 1.64799 22.416 2.25599C22.416 2.89599 22.24 3.37599 21.888 3.69599C21.568 4.01599 21.136 4.31999 20.592 4.608C20.08 4.896 19.68 5.12 19.392 5.27999L12.48 8.20799L6.14402 10.848C7.84002 11.488 9.55202 12.08 11.28 12.624C13.008 13.136 15.104 13.744 17.568 14.448C19.392 14.96 20.592 15.312 21.168 15.504C21.776 15.696 22.224 16.032 22.512 16.512C22.8 16.96 22.944 17.424 22.944 17.904C22.944 18.544 22.72 19.104 22.272 19.584C21.856 20.064 21.36 20.304 20.784 20.304C20.336 20.304 19.68 20.112 18.816 19.728C17.92 19.408 17.312 19.2 16.992 19.104C14.592 18.4 11.344 17.232 7.24802 15.6C6.57602 15.344 5.90402 15.104 5.23202 14.88C4.59202 14.624 4.03202 14.416 3.55202 14.256C2.59202 13.936 1.76002 13.488 1.05602 12.912C0.352024 12.336 2.39909e-05 11.712 2.39909e-05 11.04Z" fill="#3A2A1E"/>
</svg>
