<svg width="40" height="40" viewBox="0 0 40 40" fill="none" xmlns="http://www.w3.org/2000/svg">
<path d="M35.7143 0H4.28571C1.91878 0 0 1.91878 0 4.28571V35.7143C0 38.0812 1.91878 40 4.28571 40H35.7143C38.0812 40 40 38.0812 40 35.7143V4.28571C40 1.91878 38.0812 0 35.7143 0Z" fill="#FBC02D"/>
<path d="M17.1429 32.5857C16.9548 32.5868 16.7685 32.5508 16.5944 32.4797C16.4204 32.4086 16.2621 32.3038 16.1286 32.1714L7.55714 23.6C7.29107 23.3324 7.14172 22.9703 7.14172 22.5929C7.14172 22.2155 7.29107 21.8534 7.55714 21.5857C7.68995 21.4518 7.84795 21.3456 8.02203 21.273C8.19612 21.2005 8.38284 21.1632 8.57143 21.1632C8.76002 21.1632 8.94674 21.2005 9.12082 21.273C9.29491 21.3456 9.45291 21.4518 9.58571 21.5857L18.1571 30.1572C18.4232 30.4248 18.5726 30.7869 18.5726 31.1643C18.5726 31.5417 18.4232 31.9038 18.1571 32.1714C18.0237 32.3038 17.8653 32.4086 17.6913 32.4797C17.5172 32.5508 17.3309 32.5868 17.1429 32.5857Z" fill="#3A2A1E"/>
<path d="M8.57147 32.5857C8.29065 32.5846 8.01639 32.5007 7.78299 32.3445C7.54958 32.1883 7.36738 31.9669 7.25915 31.7077C7.15093 31.4486 7.12148 31.1633 7.17448 30.8875C7.22749 30.6117 7.3606 30.3577 7.55718 30.1572L16.1286 21.5857C16.2614 21.4518 16.4194 21.3456 16.5935 21.273C16.7676 21.2005 16.9543 21.1632 17.1429 21.1632C17.3315 21.1632 17.5182 21.2005 17.6923 21.273C17.8664 21.3456 18.0244 21.4518 18.1572 21.5857C18.4233 21.8534 18.5726 22.2155 18.5726 22.5929C18.5726 22.9703 18.4233 23.3324 18.1572 23.6L9.58576 32.1714C9.45227 32.3038 9.29396 32.4086 9.11991 32.4797C8.94585 32.5508 8.75948 32.5868 8.57147 32.5857Z" fill="#3A2A1E"/>
<path d="M31.4286 28.5714H22.8572C22.4783 28.5714 22.1149 28.4209 21.847 28.153C21.5791 27.8851 21.4286 27.5217 21.4286 27.1429C21.4286 26.764 21.5791 26.4006 21.847 26.1327C22.1149 25.8648 22.4783 25.7143 22.8572 25.7143H31.4286C31.8075 25.7143 32.1708 25.8648 32.4387 26.1327C32.7067 26.4006 32.8572 26.764 32.8572 27.1429C32.8572 27.5217 32.7067 27.8851 32.4387 28.153C32.1708 28.4209 31.8075 28.5714 31.4286 28.5714Z" fill="#3A2A1E"/>
<path d="M31.4286 12.8571H22.8572C22.4783 12.8571 22.1149 12.7066 21.847 12.4387C21.5791 12.1708 21.4286 11.8075 21.4286 11.4286C21.4286 11.0497 21.5791 10.6863 21.847 10.4184C22.1149 10.1505 22.4783 10 22.8572 10H31.4286C31.8075 10 32.1708 10.1505 32.4387 10.4184C32.7067 10.6863 32.8572 11.0497 32.8572 11.4286C32.8572 11.8075 32.7067 12.1708 32.4387 12.4387C32.1708 12.7066 31.8075 12.8571 31.4286 12.8571Z" fill="#3A2A1E"/>
<path d="M27.1429 32.5857C26.7647 32.5805 26.4024 32.4325 26.1286 32.1714C25.9963 32.0373 25.8941 31.8766 25.8286 31.7C25.753 31.529 25.714 31.3441 25.714 31.1571C25.714 30.9702 25.753 30.7853 25.8286 30.6143C25.901 30.4412 26.0024 30.2817 26.1286 30.1429C26.2614 30.009 26.4194 29.9027 26.5935 29.8302C26.7676 29.7576 26.9543 29.7203 27.1429 29.7203C27.3315 29.7203 27.5182 29.7576 27.6923 29.8302C27.8664 29.9027 28.0244 30.009 28.1572 30.1429C28.2872 30.2787 28.3892 30.4389 28.4572 30.6143C28.5328 30.7853 28.5718 30.9702 28.5718 31.1571C28.5718 31.3441 28.5328 31.529 28.4572 31.7C28.3917 31.8766 28.2895 32.0373 28.1572 32.1714C27.8834 32.4325 27.5211 32.5805 27.1429 32.5857Z" fill="#3A2A1E"/>
<path d="M27.1428 24.0144C26.7646 24.0091 26.4023 23.8611 26.1285 23.6001C25.9961 23.4666 25.8914 23.3083 25.8203 23.1342C25.7492 22.9602 25.7132 22.7738 25.7143 22.5858C25.7165 22.3991 25.7553 22.2147 25.8285 22.0429C25.9546 21.7368 26.1831 21.4839 26.4749 21.3276C26.7668 21.1713 27.1038 21.1211 27.4285 21.1858C27.518 21.2014 27.6047 21.2303 27.6857 21.2715C27.7767 21.3028 27.8632 21.346 27.9428 21.4001L28.1571 21.5715C28.2872 21.7074 28.3891 21.8676 28.4571 22.0429C28.5303 22.2147 28.5691 22.3991 28.5714 22.5858C28.5725 22.7738 28.5365 22.9602 28.4654 23.1342C28.3943 23.3083 28.2895 23.4666 28.1571 23.6001L27.9428 23.7715L27.6857 23.9001C27.6047 23.9413 27.518 23.9702 27.4285 23.9858L27.1428 24.0144Z" fill="#3A2A1E"/>
<path d="M4.28571 0C3.14907 0 2.05898 0.451529 1.25526 1.25526C0.451529 2.05898 0 3.14907 0 4.28571V35.7143C0 36.8509 0.451529 37.941 1.25526 38.7447C2.05898 39.5485 3.14907 40 4.28571 40H19.8714V0H4.28571Z" fill="#FFD54F"/>
<path d="M9.58573 21.8428C9.31672 21.5738 8.95187 21.4226 8.57144 21.4226C8.19101 21.4226 7.82616 21.5738 7.55715 21.8428C7.28815 22.1118 7.13702 22.4766 7.13702 22.8571C7.13702 23.2375 7.28815 23.6023 7.55715 23.8713L16.1286 32.4428C16.2614 32.5767 16.4194 32.6829 16.5935 32.7555C16.7676 32.828 16.9543 32.8653 17.1429 32.8653C17.3315 32.8653 17.5182 32.828 17.6923 32.7555C17.8663 32.6829 18.0244 32.5767 18.1572 32.4428C18.2911 32.31 18.3973 32.152 18.4699 31.9779C18.5424 31.8038 18.5797 31.6171 18.5797 31.4285C18.5797 31.2399 18.5424 31.0532 18.4699 30.8791C18.3973 30.705 18.2911 30.547 18.1572 30.4142L9.58573 21.8428Z" fill="#593818"/>
<path d="M16.1286 21.8428L7.55715 30.4142C7.42325 30.547 7.31698 30.705 7.24445 30.8791C7.17192 31.0532 7.13458 31.2399 7.13458 31.4285C7.13458 31.6171 7.17192 31.8038 7.24445 31.9779C7.31698 32.152 7.42325 32.31 7.55715 32.4428C7.68996 32.5767 7.84796 32.6829 8.02204 32.7555C8.19613 32.828 8.38285 32.8653 8.57144 32.8653C8.76003 32.8653 8.94675 32.828 9.12083 32.7555C9.29492 32.6829 9.45292 32.5767 9.58572 32.4428L18.1572 23.8713C18.2903 23.7381 18.396 23.58 18.4681 23.406C18.5402 23.2319 18.5773 23.0454 18.5773 22.8571C18.5773 22.6687 18.5402 22.4822 18.4681 22.3081C18.396 22.1341 18.2903 21.976 18.1572 21.8428C18.024 21.7096 17.8658 21.6039 17.6918 21.5318C17.5178 21.4597 17.3312 21.4226 17.1429 21.4226C16.9545 21.4226 16.768 21.4597 16.5939 21.5318C16.4199 21.6039 16.2618 21.7096 16.1286 21.8428Z" fill="#593818"/>
<path d="M17.1429 12.8571H8.57145C8.19257 12.8571 7.82921 12.7066 7.5613 12.4387C7.29339 12.1708 7.14288 11.8075 7.14288 11.4286C7.14288 11.0497 7.29339 10.6863 7.5613 10.4184C7.82921 10.1505 8.19257 10 8.57145 10H17.1429C17.5218 10 17.8851 10.1505 18.153 10.4184C18.4209 10.6863 18.5715 11.0497 18.5715 11.4286C18.5715 11.8075 18.4209 12.1708 18.153 12.4387C17.8851 12.7066 17.5218 12.8571 17.1429 12.8571Z" fill="#593818"/>
<path d="M14.2857 7.14285L14.2857 15.7143C14.2857 16.0932 14.1352 16.4565 13.8673 16.7244C13.5994 16.9923 13.236 17.1429 12.8572 17.1429C12.4783 17.1429 12.1149 16.9923 11.847 16.7244C11.5791 16.4565 11.4286 16.0932 11.4286 15.7143L11.4286 7.14285C11.4286 6.76397 11.5791 6.40061 11.847 6.1327C12.1149 5.86479 12.4783 5.71428 12.8572 5.71428C13.236 5.71428 13.5994 5.86479 13.8673 6.1327C14.1352 6.40061 14.2857 6.76397 14.2857 7.14285Z" fill="#593818"/>
</svg>
