<svg xmlns="http://www.w3.org/2000/svg" fill="none" viewBox="0 1.88 45 41.25">
<path fill-rule="evenodd" clip-rule="evenodd" d="M41.25 24.375C41.1994 14.0681 32.8181 5.625 22.5 5.625C12.1819 5.625 3.80063 14.0681 3.75 24.375H8.4375C9.99 24.375 11.25 25.635 11.25 27.1875V40.3125C11.25 41.865 9.99 43.125 8.4375 43.125H2.8125C1.26 43.125 0 41.865 0 40.3125V24.375C0.050625 11.9981 10.1138 1.875 22.5 1.875C34.8862 1.875 44.9494 11.9981 45 24.375V40.3125C45 41.865 43.74 43.125 42.1875 43.125H36.5625C35.01 43.125 33.75 41.865 33.75 40.3125V27.1875C33.75 25.635 35.01 24.375 36.5625 24.375H41.25Z" fill="#3A2A1E"/>
</svg>